<?xml version="1.0" encoding="utf-8"?>
<!DOCTYPE svg PUBLIC "-//W3C//DTD SVG 1.0//EN" "http://www.w3.org/TR/2001/REC-SVG-20010904/DTD/svg10.dtd">
<svg version="1.0" xmlns="http://www.w3.org/2000/svg" width="2048px" height="2048px" viewBox="0 0 2048 2048" preserveAspectRatio="xMidYMid meet">
 <g fill="currentColor">
  <path d="M 809 1679.80 c -186.80 -17.40 -357.80 -114 -472 -266.80 -60 -80 -98.80 -166.20 -118 -262 -22.40 -111.20 -15.80 -224.40 19 -329 56.20 -168.40 177.40 -308.60 335.20 -387.60 43.80 -22 73.20 -33.40 116.40 -45.40 60.20 -16.60 110.80 -23.60 170.40 -23.60 123.80 -0.20 230.20 29.40 340.80 95 109.80 65 209 178.20 262 299.20 5.40 12.40 5.40 12.40 172.80 12.40 167.40 0 167.40 0 177.40 4.80 21.40 9.80 31.80 31 27 54.40 -3 14.20 -12.20 26.20 -25.80 33.20 -10.80 5.60 -10.80 5.60 -203 5.20 -192.20 -0.60 -192.20 -0.60 -200.40 -5 -12.40 -6.60 -21 -18 -29.60 -40 -19 -48 -53.60 -107.40 -86.40 -148.60 -19.80 -24.80 -74.60 -79 -98 -96.60 -142.80 -107.40 -318.60 -140.40 -487.60 -91.60 -62.40 18 -138 57.40 -188 97.60 -49 39.60 -95.60 91.80 -128.60 144.20 -27 43 -53.40 103.60 -65.60 151.40 -46.40 181.20 -3.80 363.20 118.60 505.80 32.40 37.60 71.20 71.40 117.40 102.20 73.80 49 151.20 77.60 242 89.20 33 4.20 96.60 3.20 132.80 -2 81.40 -11.80 160.60 -42.20 229.80 -88.20 36.60 -24.40 60.20 -44 93.40 -78.20 56.20 -57.60 89.80 -109.80 123.20 -190.80 4.60 -11.40 9.40 -18.60 16 -25.40 16.60 -16.60 5 -15.80 219.20 -15.20 188 0.60 188 0.60 197.60 6.60 12.40 7.60 20.40 19 23.40 33 4.40 21.20 -7.40 44.20 -28 54.40 -9.40 4.60 -9.40 4.60 -176.40 5.20 -167 0.60 -167 0.60 -173.80 16 -33.20 75.40 -92.20 155.80 -157.20 214.80 -124.60 113 -281.20 174.60 -441.80 173.40 -19.80 -0.20 -44.20 -1 -54.20 -2 z "/>
  <path d="M 825 1497.80 c -166.40 -12.80 -319.40 -118.60 -395.20 -272.80 -33.80 -69 -46.60 -125 -46.80 -204 0 -82 14.60 -143.40 51.80 -216 68.20 -133.80 190.80 -228.60 332.20 -256.80 37.20 -7.40 55.60 -9.20 98 -9.20 51.60 0 87.40 5 130.60 17.80 79.60 24 145.60 64 203.80 123.80 60 61.60 100.60 131.80 121.80 210.40 2.60 10 4.80 18.60 4.80 19.60 0 0.80 -61 1.40 -135.80 1.40 -135.60 0 -135.60 0 -142.80 -11.60 -16.80 -27.20 -49.60 -56.40 -81.40 -72.40 -24.20 -12.20 -38.40 -16.80 -64.20 -21.20 -49.80 -8.20 -105.20 3 -149.80 30.80 -17.80 11 -51.80 44 -64 62.20 -18.40 27.40 -31.20 60.20 -36.20 92.20 -3.60 23 -1.20 63 4.80 86.40 20.40 77.40 82 138.40 162.20 160 23.60 6.40 74.60 6.40 98.80 -0.20 22.60 -6 48.80 -17.40 66.60 -29.20 20.40 -13.60 48.80 -41.60 60.80 -59.80 9.80 -15.20 9.80 -15.20 144.40 -15.20 103.20 0 134.60 0.60 134.60 2.40 0 5 -18.60 56.60 -27.20 76.20 -11.80 26.40 -35 65.20 -54.60 91.60 -72.60 97.20 -174.80 162.80 -289.60 185.60 -47.20 9.40 -82 11.60 -127.60 8 z  m -295 -440.80 c 6.80 -3.60 15.20 -14 16.80 -21 0.60 -2.80 2 -16.40 3.20 -30.40 2.40 -31.80 6.20 -50.20 16 -80.20 16.60 -49.80 40 -87.60 77.80 -125.60 38.40 -38.40 74.20 -60.60 125.80 -77.80 27.40 -9.20 51.40 -13.80 79.40 -15.20 11 -0.60 23 -1.40 26.60 -2 8 -1.20 20 -11.40 23.60 -20.20 8.60 -20.20 -5.80 -44.20 -28.40 -47.80 -21.60 -3.40 -90.40 7.60 -126.60 20.20 -140.60 49 -237.60 167 -259.20 315.20 -4.40 31 -4 59.80 1 69.80 3.60 7.20 11 14 18 16.60 6 2.20 20.40 1.40 26 -1.60 z "/>
  <path d="M 861.40 1071.20 c -13.20 -4.80 -22.20 -12.20 -28.40 -23.40 -14.60 -27.20 -1.80 -60.60 27.20 -70.80 7.20 -2.60 70.80 -3 475.60 -3 465.80 0 467.20 0.20 476.20 4.20 37.80 17 40 70 3.60 89.20 -10.60 5.60 -10.60 5.60 -478.60 6 -390.20 0.40 -469.20 0 -475.60 -2.20 z "/>
 </g>
</svg>