<svg xmlns="http://www.w3.org/2000/svg" viewBox="0 0 367.1 84.0">
  <svg x="0" y="2.0" width="80" height="80" viewBox="0 0 400 400">
    <circle cx="200" cy="200" r="180" fill="#FABE03" stroke="#EE2004" stroke-width="14"/>
    <g transform="translate(110.3,268.9) scale(0.2803,-0.2803)">
      <path d="M738 591Q738 532 658 532Q635 532 622.5 535.5Q610 539 593 547Q590 540 590 527Q590 511 595.5 489.0Q601 467 609 448Q630 417 630 374Q630 355 625 328Q613 276 572.5 233.0Q532 190 468.5 165.5Q405 141 329 141Q271 141 220 149Q205 136 205 117Q205 104 217.0 95.5Q229 87 257 87H407Q484 87 527.0 60.5Q570 34 570 -15Q570 -33 564 -52Q552 -91 509.5 -124.5Q467 -158 390.0 -179.0Q313 -200 203 -200Q105 -200 37.0 -183.0Q-31 -166 -64.5 -136.5Q-98 -107 -98 -71Q-98 -63 -94 -47Q-85 -18 -53.5 0.5Q-22 19 50 25Q26 48 26 80Q26 91 29 103Q45 155 123 180Q48 221 48 300Q48 322 54 346Q66 398 107.0 440.5Q148 483 212.0 508.0Q276 533 352 533Q471 533 539 502Q524 525 515.5 551.5Q507 578 507 600Q507 638 531.5 665.0Q556 692 606 692Q638 692 668.5 678.5Q699 665 718.5 641.5Q738 618 738 591ZM405 415Q405 449 376 449Q351 449 332.5 424.5Q314 400 295 337Q279 285 279 258Q279 225 307 225Q332 225 351.0 250.0Q370 275 389 337Q405 388 405 415ZM190 -14Q162 -14 139 -11Q127 -26 127 -51Q128 -76 147.5 -87.0Q167 -98 208 -98Q258 -98 289.5 -83.0Q321 -68 321 -40Q321 -28 312.0 -21.0Q303 -14 286 -14Z" fill="#2717B0"/>
    </g>
  </svg>
  <g transform="translate(84.3,55.8) scale(0.0561,-0.0561)">
    <path transform="translate(0,0)" d="M614 411Q614 392 610 376Q600 335 572.0 313.0Q544 291 505 291Q467 291 447.5 309.0Q428 327 413 357Q405 374 398.0 382.0Q391 390 382 390Q372 390 364.5 382.0Q357 374 351 354L274 104Q272 99 272 89Q272 76 279.5 67.5Q287 59 300 51Q312 43 316.0 38.0Q320 33 319 25Q317 12 304.5 6.0Q292 0 262 0H6Q-20 0 -31.5 8.5Q-43 17 -40 31Q-36 43 -19 52Q-4 60 6.0 71.0Q16 82 23 106L112 395Q114 400 114 409Q114 420 109.5 426.0Q105 432 95 441Q85 449 81.0 455.0Q77 461 80 471Q86 494 143.0 511.5Q200 529 262 529Q303 529 330.0 510.5Q357 492 365 458Q413 529 491 529Q547 529 580.5 495.0Q614 461 614 411Z" fill="#2717B0"/>
    <path transform="translate(579,0)" d="M652 330Q652 300 644 263Q625 181 573.0 119.5Q521 58 445.5 24.5Q370 -9 282 -9Q143 -9 76.5 46.5Q10 102 10 194Q10 225 18 263Q37 341 90.5 401.5Q144 462 221.5 495.5Q299 529 387 529Q523 529 587.5 474.0Q652 419 652 330ZM284 261Q252 157 252 115Q252 93 259.0 85.5Q266 78 278 78Q299 76 321.5 114.0Q344 152 378 262Q409 359 409 403Q409 424 402.5 432.0Q396 440 384 440Q363 440 339.5 402.5Q316 365 284 261Z" fill="#2717B0"/>
    <path transform="translate(1235,0)" d="M652 330Q652 300 644 263Q625 181 573.0 119.5Q521 58 445.5 24.5Q370 -9 282 -9Q143 -9 76.5 46.5Q10 102 10 194Q10 225 18 263Q37 341 90.5 401.5Q144 462 221.5 495.5Q299 529 387 529Q523 529 587.5 474.0Q652 419 652 330ZM284 261Q252 157 252 115Q252 93 259.0 85.5Q266 78 278 78Q299 76 321.5 114.0Q344 152 378 262Q409 359 409 403Q409 424 402.5 432.0Q396 440 384 440Q363 440 339.5 402.5Q316 365 284 261Z" fill="#2717B0"/>
    <path transform="translate(1891,0)" d="M611 387Q611 298 549.0 205.0Q487 112 392.0 51.5Q297 -9 207 -9Q121 -9 67.5 26.0Q14 61 14 126Q14 150 23 180L86 395Q88 403 88 407Q88 417 83.0 424.0Q78 431 69 439Q54 452 54 462Q53 476 71.0 492.0Q89 508 121.5 518.5Q154 529 195 529Q262 529 299.5 496.5Q337 464 337 412Q337 389 329 362L264 148Q261 139 261 133Q261 120 270.0 113.0Q279 106 295 106Q317 106 346.5 125.5Q376 145 405.0 181.5Q434 218 452 268Q412 303 395.5 337.0Q379 371 379 407Q379 458 407.0 493.5Q435 529 488 529Q541 529 576.0 491.0Q611 453 611 387Z" fill="#2717B0"/>
    <path transform="translate(2490,0)" d="M580 390Q580 371 576 355Q561 289 492.5 260.5Q424 232 331 232Q284 232 243 238Q242 186 271.0 165.0Q300 144 352 144Q376 144 398.0 149.5Q420 155 454 166Q482 176 492 176Q503 176 503 163Q504 128 477.0 89.5Q450 51 397.0 24.0Q344 -3 269 -3Q158 -3 87.0 53.0Q16 109 16 216Q16 246 24 286Q49 409 133.5 471.5Q218 534 339 534Q466 534 523.0 493.5Q580 453 580 390ZM261 297Q303 297 325.0 336.0Q347 375 346 423Q345 451 330 451Q319 451 304.0 433.5Q289 416 274.5 381.0Q260 346 250 298Q254 297 261 297Z" fill="#2717B0"/>
    <path transform="translate(3250,0)" d="M432 657Q432 635 425 614L268 104Q265 92 265 83Q265 70 270.0 62.5Q275 55 284 48Q291 41 294.0 36.5Q297 32 295 25Q290 12 275.0 6.0Q260 0 229 0H1Q-25 0 -37.0 8.5Q-49 17 -45 31Q-41 43 -24 52Q-9 60 1.0 71.0Q11 82 18 106L170 605Q173 614 173 620Q173 631 167.5 638.0Q162 645 153 652Q143 660 138.5 666.0Q134 672 137 682Q143 705 200.0 722.0Q257 739 319 739Q377 739 404.5 717.0Q432 695 432 657Z" fill="#2717B0"/>
    <path transform="translate(3616,0)" d="M652 330Q652 300 644 263Q625 181 573.0 119.5Q521 58 445.5 24.5Q370 -9 282 -9Q143 -9 76.5 46.5Q10 102 10 194Q10 225 18 263Q37 341 90.5 401.5Q144 462 221.5 495.5Q299 529 387 529Q523 529 587.5 474.0Q652 419 652 330ZM284 261Q252 157 252 115Q252 93 259.0 85.5Q266 78 278 78Q299 76 321.5 114.0Q344 152 378 262Q409 359 409 403Q409 424 402.5 432.0Q396 440 384 440Q363 440 339.5 402.5Q316 365 284 261Z" fill="#2717B0"/>
    <path transform="translate(4272,0)" d="M738 591Q738 532 658 532Q635 532 622.5 535.5Q610 539 593 547Q590 540 590 527Q590 511 595.5 489.0Q601 467 609 448Q630 417 630 374Q630 355 625 328Q613 276 572.5 233.0Q532 190 468.5 165.5Q405 141 329 141Q271 141 220 149Q205 136 205 117Q205 104 217.0 95.5Q229 87 257 87H407Q484 87 527.0 60.5Q570 34 570 -15Q570 -33 564 -52Q552 -91 509.5 -124.5Q467 -158 390.0 -179.0Q313 -200 203 -200Q105 -200 37.0 -183.0Q-31 -166 -64.5 -136.5Q-98 -107 -98 -71Q-98 -63 -94 -47Q-85 -18 -53.5 0.5Q-22 19 50 25Q26 48 26 80Q26 91 29 103Q45 155 123 180Q48 221 48 300Q48 322 54 346Q66 398 107.0 440.5Q148 483 212.0 508.0Q276 533 352 533Q471 533 539 502Q524 525 515.5 551.5Q507 578 507 600Q507 638 531.5 665.0Q556 692 606 692Q638 692 668.5 678.5Q699 665 718.5 641.5Q738 618 738 591ZM405 415Q405 449 376 449Q351 449 332.5 424.5Q314 400 295 337Q279 285 279 258Q279 225 307 225Q332 225 351.0 250.0Q370 275 389 337Q405 388 405 415ZM190 -14Q162 -14 139 -11Q127 -26 127 -51Q128 -76 147.5 -87.0Q167 -98 208 -98Q258 -98 289.5 -83.0Q321 -68 321 -40Q321 -28 312.0 -21.0Q303 -14 286 -14Z" fill="#2717B0"/>
  </g>
</svg>