<?xml version="1.0" encoding="utf-8"?>
<!DOCTYPE svg PUBLIC "-//W3C//DTD SVG 1.0//EN" "http://www.w3.org/TR/2001/REC-SVG-20010904/DTD/svg10.dtd">
<svg version="1.0" xmlns="http://www.w3.org/2000/svg" viewBox="80 460 2680 670" preserveAspectRatio="xMidYMid meet">
 <g fill="currentColor">
  <path d="M234.33 1098.77 c-35.20 -5.32 -61.19 -18.42 -84.93 -42.57 -14.33 -14.53 -19.03 -21.08 -26.81 -37.04 -11.26 -23.13 -14.94 -35.81 -15.14 -51.57 0 -9.62 0.82 -12.69 4.71 -16.37 4.50 -4.50 5.93 -4.71 39.09 -4.71 39.91 0 41.13 0.41 46.25 18.42 6.14 21.08 20.87 37.25 39.70 43.59 12.28 4.30 34.79 3.07 46.25 -2.46 13.30 -6.34 25.99 -19.65 33.15 -35 l5.73 -12.28 0.61 -104.99 c0.61 -113.58 0.20 -117.88 -10.44 -135.48 -11.87 -19.44 -24.76 -28.86 -45.02 -32.54 -29.27 -5.32 -55.67 8.39 -69.38 36.22 -6.34 12.89 -6.75 14.73 -6.75 36.22 0 20.47 0.41 23.53 5.53 32.95 16.17 30.70 39.50 42.57 72.86 37.45 8.80 -1.43 18.42 -1.84 21.28 -1.23 8.19 2.05 9.82 9.21 9.82 43.39 0 29.67 -0.20 31.72 -4.50 36.63 -12.28 14.12 -74.90 12.48 -108.47 -2.66 -44 -19.65 -77.36 -65.49 -85.54 -117.47 -3.27 -19.44 -1.64 -56.48 3.27 -74.08 11.67 -43.39 42.77 -81.66 81.66 -100.28 20.47 -10.03 35.61 -13.51 62.62 -14.73 31.31 -1.43 51.57 2.46 77.56 15.14 16.17 7.78 22.31 12.28 37.04 27.01 19.44 19.65 28.86 34.38 38.27 61.80 10.23 29.27 11.05 39.91 10.23 156.35 -0.82 121.36 -0.61 119.93 -19.44 158.20 -7.98 16.37 -12.69 22.92 -27.22 37.66 -15.55 15.76 -20.06 19.03 -39.09 28.04 -11.67 5.53 -27.22 11.46 -34.59 13.10 -17.60 4.30 -43.18 5.73 -58.33 3.27z"/>
  <path d="M2537.67 1098.98 c-33.77 -4.09 -58.94 -16.17 -83.70 -39.91 -9.62 -9.41 -20.67 -22.31 -24.56 -28.65 -9.62 -15.96 -18.62 -42.36 -20.06 -58.33 -1.02 -12.28 -0.61 -13.92 4.09 -19.44 l5.12 -6.14 32.74 -0.61 c32.54 -0.61 32.54 -0.61 38.88 4.71 4.30 3.48 7.37 9 9.62 16.37 4.30 15.35 17.60 31.11 32.33 38.68 9.82 5.12 13.92 5.93 26.81 5.73 19.65 -0.20 30.49 -4.91 45.02 -19.44 9.21 -9.21 11.87 -13.51 15.55 -25.38 4.09 -13.71 4.30 -17.19 3.68 -122.38 l-0.61 -108.47 -5.53 -11.67 c-6.14 -13.10 -20.06 -27.83 -31.72 -33.56 -5.12 -2.46 -13.71 -4.09 -25.38 -4.50 -22.51 -1.02 -34.59 3.68 -48.30 18.83 -15.14 16.78 -20.06 29.27 -20.06 52.39 0 17.60 0.61 20.67 6.34 32.74 6.55 13.51 19.65 28.65 29.67 33.77 11.67 6.14 23.94 7.37 45.23 4.71 19.85 -2.46 20.26 -2.46 24.76 2.05 4.30 4.50 4.50 6.14 4.50 38.07 0 32.54 -0.20 33.77 -4.91 38.88 -6.34 6.75 -19.65 9.41 -47.07 9.41 -37.45 0 -66.51 -10.23 -94.55 -33.56 -35.40 -29.27 -58.12 -85.95 -54.44 -134.66 2.05 -24.35 6.75 -41.13 19.03 -66.72 9.62 -19.85 13.51 -25.38 28.04 -40.11 14.33 -14.53 19.85 -18.42 38.27 -27.42 28.04 -13.71 47.07 -17.60 79.61 -16.17 43.59 1.84 72.04 13.92 100.48 42.36 26.60 26.60 41.95 58.94 46.87 99.26 2.87 23.53 3.07 192.58 0.20 215.91 -4.71 39.09 -18.62 69.58 -43.59 95.57 -9 9.21 -20.47 19.65 -25.79 22.92 -28.65 18.42 -73.06 28.65 -106.62 24.76z"/>
  <path d="M742.07 915.61 c-62.21 -13.92 -110.51 -67.13 -120.13 -131.80 -2.87 -20.06 -1.43 -50.14 3.48 -69.58 10.23 -40.93 40.32 -79 78.59 -99.05 25.17 -13.30 40.32 -16.58 73.67 -16.37 26.60 0 31.31 0.61 46.46 5.73 21.69 7.16 49.53 25.58 65.69 43.39 53.82 59.55 55.05 156.15 2.87 216.32 -21.08 24.56 -47.48 41.75 -75.11 49.53 -17.60 4.91 -57.71 5.93 -75.52 1.84z m57.10 -90.25 c12.28 -4.09 28.65 -19.65 35.81 -34.38 4.50 -9 5.12 -12.89 5.12 -32.74 0 -20.67 -0.41 -23.33 -5.73 -33.36 -13.71 -25.99 -32.13 -37.86 -58.73 -38.07 -19.24 -0.20 -34.59 6.55 -47.27 20.87 -12.69 14.33 -16.78 24.97 -17.80 46.46 -0.61 15.35 0 20.47 3.68 30.29 6.14 15.96 15.35 27.83 28.65 35.61 18.62 11.26 34.18 12.69 56.28 5.32z"/>
  <path d="M1073.60 915.61 c-38.68 -8.60 -72.24 -31.52 -94.14 -64.26 -20.67 -30.90 -27.83 -55.05 -27.83 -94.75 0 -21.28 0.82 -28.65 5.32 -43.59 12.69 -44.61 41.34 -79.20 81.66 -99.05 26.60 -13.30 46.66 -17.19 77.56 -15.96 66.51 3.07 119.31 45.84 140.80 114.20 4.09 13.30 4.71 19.65 4.71 46.05 0 26.40 -0.61 32.74 -4.71 46.05 -16.99 54.03 -54.23 92.09 -105.80 108.47 -19.24 5.93 -57.51 7.37 -77.56 2.87z m56.89 -90.25 c19.24 -6.14 38.07 -30.70 41.75 -54.64 5.12 -32.13 -12.28 -67.33 -39.09 -79.20 -15.76 -7.16 -39.50 -6.75 -53.62 0.61 -11.87 6.14 -25.38 19.85 -31.52 31.93 -17.19 33.77 -3.89 79.81 28.24 97.41 17.60 9.41 32.95 10.64 54.23 3.89z"/>
  <path d="M1372.19 916.22 c-27.22 -9 -38.27 -24.15 -53.21 -72.04 -5.12 -16.78 -16.78 -53.21 -25.58 -80.84 -45.84 -142.44 -47.27 -148.78 -38.68 -156.76 3.68 -3.48 8.19 -3.89 36.63 -4.50 46.66 -1.02 45.64 -1.84 59.14 46.87 4.50 16.17 15.55 56.07 24.56 88.41 9.21 32.54 16.58 60.37 16.58 62.01 0 6.14 3.48 2.46 5.53 -5.73 11.67 -47.27 48.09 -174.98 51.78 -181.93 4.30 -7.98 14.12 -10.03 46.66 -10.03 27.83 0 31.11 0.41 36.02 4.30 10.03 7.98 11.67 1.23 -49.32 194.21 -12.89 41.13 -25.17 77.97 -27.22 81.86 -6.55 12.69 -19.65 25.79 -31.11 30.70 -13.30 5.73 -39.29 7.57 -51.78 3.48z"/>
  <path d="M1650.31 916.63 c-26.60 -4.50 -53 -18.01 -74.90 -38.47 -44 -40.93 -60.99 -106.83 -43.39 -167.20 7.37 -25.58 19.03 -46.66 35.81 -64.87 29.67 -32.33 68.15 -48.50 114.81 -48.50 53 0.20 95.57 23.13 124.63 67.33 12.48 18.83 13.30 27.01 3.48 36.43 -3.68 3.48 -21.49 17.19 -39.50 30.49 -18.01 13.30 -41.54 30.70 -52.19 38.88 -27.63 20.67 -44.82 31.52 -50.75 31.52 -5.93 0 -14.33 -8.39 -25.38 -25.38 -13.10 -20.26 -10.64 -27.83 14.33 -45.43 7.57 -5.32 24.15 -17.60 36.84 -27.01 22.72 -16.58 23.13 -17.19 19.65 -21.08 -5.53 -6.14 -24.15 -10.64 -38.07 -9.41 -24.97 2.25 -43.39 16.37 -56.07 43.18 -15.96 33.97 -9.41 74.90 16.58 100.69 14.73 14.73 29.06 19.85 52.19 18.83 14.94 -0.61 19.24 -1.84 30.49 -7.78 14.53 -7.78 25.38 -19.85 35.20 -39.29 7.98 -15.76 12.48 -18.62 25.79 -16.17 19.44 3.68 45.84 12.07 49.93 15.55 6.34 5.93 5.12 19.03 -3.27 37.25 -21.69 47.07 -61.60 79.40 -109.90 89.43 -16.78 3.48 -48.71 3.89 -66.31 1.02z"/>
  <path d="M2190.38 915.81 c-52.80 -12.07 -95.16 -51.16 -113.58 -104.37 -20.87 -60.99 -6.34 -123.61 39.70 -169.25 15.14 -15.14 20.87 -19.24 38.88 -28.04 27.63 -13.51 47.27 -17.60 78.38 -15.96 40.11 1.84 71.42 15.96 100.28 45.23 25.58 25.79 41.75 59.76 46.05 97 8.80 77.36 -40.93 153.49 -113.58 173.34 -16.99 4.71 -59.76 5.73 -76.13 2.05z m57.30 -90.25 c13.71 -4.71 28.65 -19.03 36.43 -34.79 5.93 -12.07 6.55 -15.14 6.55 -31.11 -0.20 -22.72 -5.12 -36.43 -19.03 -51.98 -14.53 -16.17 -25.17 -21.08 -47.07 -21.08 -14.12 0 -19.24 1.02 -27.01 4.71 -13.10 6.55 -28.86 24.15 -34.38 38.88 -5.53 14.33 -6.14 39.91 -1.23 53.21 6.75 18.83 23.53 36.43 40.73 42.77 9.62 3.48 33.97 3.27 45.02 -0.61z"/>
  <path d="M449.62 910.49 c-9.62 -5.73 -9.62 -4.71 -9.62 -154.10 l0 -140.39 5.93 -6.55 5.93 -6.75 31.11 0 c39.50 0 38.88 -0.61 39.09 31.52 0 13.30 0.82 19.65 1.64 16.58 5.73 -18.62 19.44 -33.77 38.88 -42.57 9.21 -4.30 15.55 -5.53 31.11 -6.14 27.01 -1.23 26.40 -2.05 26.40 43.59 0 26.81 -0.61 36.02 -2.87 38.88 -2.46 3.27 -6.55 4.30 -23.13 5.32 -23.53 1.64 -32.74 5.32 -44.20 18.01 -17.80 19.65 -18.42 23.33 -19.65 115.22 l-1.23 79 -4.91 5.32 c-4.91 5.32 -5.12 5.32 -37.86 5.32 -18.62 0 -34.59 -1.02 -36.63 -2.25z"/>
  <path d="M1964.45 909.67 c-3.07 -1.64 -6.55 -5.93 -7.78 -9.41 -1.64 -4.71 -2.25 -66.31 -2.25 -208.95 0 -175.59 0.41 -203.22 3.07 -208.33 5.73 -11.26 9.41 -12.28 42.36 -12.28 l30.29 0 6.55 5.93 6.75 5.93 0.61 205.47 c0.20 112.97 0 207.52 -0.61 209.97 -0.61 2.66 -3.68 7.16 -6.55 9.82 -5.12 4.71 -6.34 4.91 -36.22 4.91 -22.92 -0.20 -32.33 -1.02 -36.22 -3.07z"/>
 </g>
</svg>