<svg id="Layer_1" viewBox="0 0 64 64" xmlns="http://www.w3.org/2000/svg" data-name="Layer 1"><path d="m32.226 20.883c-6.13 0-11.117 4.987-11.117 11.117s4.987 11.117 11.117 11.117 11.117-4.987 11.117-11.117-4.987-11.117-11.117-11.117zm0 19.05c-4.374 0-7.933-3.559-7.933-7.933s3.559-7.933 7.933-7.933 7.932 3.559 7.932 7.933-3.558 7.933-7.932 7.933z"/><path d="m52.6 6.331-2.042 3.734c-.092.167-.23.306-.397.397l-3.733 2.042 3.733 2.042c.167.092.306.23.397.397l2.042 3.734 2.042-3.734c.092-.167.23-.306.397-.397l3.733-2.042-3.733-2.042c-.167-.092-.306-.23-.397-.397z"/><path d="m55.695 17.184-2.218 4.056c-.175.321-.512.52-.877.52s-.702-.199-.877-.52l-2.779-5.081-5.081-2.778c-.32-.175-.52-.512-.52-.877s.199-.702.52-.877l4.288-2.346c-4.67-3.298-10.141-5.055-15.926-5.055-15.315 0-27.774 12.459-27.774 27.774 0 4.885 1.283 9.628 3.701 13.822l2.227-4.072c.351-.642 1.404-.642 1.755 0l2.779 5.081 5.081 2.778c.32.175.52.512.52.877s-.199.702-.52.877l-4.73 2.587c4.831 3.748 10.804 5.823 16.962 5.823 15.315 0 27.774-12.459 27.774-27.774 0-5.299-1.494-10.384-4.305-14.816zm-23.47 27.933c-7.233 0-13.117-5.884-13.117-13.117s5.884-13.117 13.117-13.117 13.117 5.884 13.117 13.117-5.884 13.117-13.117 13.117z"/><path d="m32.226 26.067c-3.271 0-5.933 2.661-5.933 5.933s2.661 5.933 5.933 5.933 5.932-2.661 5.932-5.933-2.661-5.933-5.932-5.933zm0 9.185c-1.793 0-3.252-1.459-3.252-3.252s1.459-3.252 3.252-3.252 3.252 1.459 3.252 3.252-1.459 3.252-3.252 3.252z"/><path d="m13.696 52.528 3.733-2.042-3.733-2.042c-.167-.092-.306-.23-.397-.397l-2.042-3.734-2.042 3.734c-.092.167-.23.306-.397.397l-3.733 2.042 3.733 2.042c.167.092.306.23.397.397l2.042 3.734 2.042-3.734c.092-.167.23-.306.397-.397z"/><circle cx="32.226" cy="32" r="1.252"/></svg>