<svg xmlns="http://www.w3.org/2000/svg" viewBox="0 0 400 400" width="400" height="400">
  <circle cx="200" cy="200" r="180" fill="#FABE03" stroke="#EE2004" stroke-width="14"/>
  <g transform="translate(110.3,268.9) scale(0.2803,-0.2803)">
    <path d="M738 591Q738 532 658 532Q635 532 622.5 535.5Q610 539 593 547Q590 540 590 527Q590 511 595.5 489.0Q601 467 609 448Q630 417 630 374Q630 355 625 328Q613 276 572.5 233.0Q532 190 468.5 165.5Q405 141 329 141Q271 141 220 149Q205 136 205 117Q205 104 217.0 95.5Q229 87 257 87H407Q484 87 527.0 60.5Q570 34 570 -15Q570 -33 564 -52Q552 -91 509.5 -124.5Q467 -158 390.0 -179.0Q313 -200 203 -200Q105 -200 37.0 -183.0Q-31 -166 -64.5 -136.5Q-98 -107 -98 -71Q-98 -63 -94 -47Q-85 -18 -53.5 0.5Q-22 19 50 25Q26 48 26 80Q26 91 29 103Q45 155 123 180Q48 221 48 300Q48 322 54 346Q66 398 107.0 440.5Q148 483 212.0 508.0Q276 533 352 533Q471 533 539 502Q524 525 515.5 551.5Q507 578 507 600Q507 638 531.5 665.0Q556 692 606 692Q638 692 668.5 678.5Q699 665 718.5 641.5Q738 618 738 591ZM405 415Q405 449 376 449Q351 449 332.5 424.5Q314 400 295 337Q279 285 279 258Q279 225 307 225Q332 225 351.0 250.0Q370 275 389 337Q405 388 405 415ZM190 -14Q162 -14 139 -11Q127 -26 127 -51Q128 -76 147.5 -87.0Q167 -98 208 -98Q258 -98 289.5 -83.0Q321 -68 321 -40Q321 -28 312.0 -21.0Q303 -14 286 -14Z" fill="#2717B0"/>
  </g>
</svg>
